<mxfile host="app.diagrams.net" modified="2021-05-27T15:46:38.205Z" agent="5.0 (X11; Linux x86_64) AppleWebKit/537.36 (KHTML, like Gecko) Chrome/90.0.4430.212 Safari/537.36" etag="2_KPPoFRcq6o3DeHxa1E" version="14.7.2" type="github">
  <diagram id="h569u8DtTfewGSpmWO_U" name="Page-1">
    <mxGraphModel dx="1422" dy="720" grid="1" gridSize="10" guides="1" tooltips="1" connect="1" arrows="1" fold="1" page="1" pageScale="1" pageWidth="827" pageHeight="1169" math="0" shadow="0">
      <root>
        <mxCell id="0" />
        <mxCell id="1" parent="0" />
        <mxCell id="et_fUm3F6kDetxY7O-I9-12" value="" style="rounded=0;whiteSpace=wrap;html=1;labelBackgroundColor=#ffffff;fontColor=none;" vertex="1" parent="1">
          <mxGeometry x="100" y="10" width="630" height="710" as="geometry" />
        </mxCell>
        <mxCell id="et_fUm3F6kDetxY7O-I9-1" value="" style="group" vertex="1" connectable="0" parent="1">
          <mxGeometry x="119" y="30" width="590" height="380" as="geometry" />
        </mxCell>
        <mxCell id="16fR0u0LPAKKEnV1Gi2a-15" value="" style="whiteSpace=wrap;html=1;rounded=1;fillColor=#ffe6cc;strokeColor=#d79b00;" parent="et_fUm3F6kDetxY7O-I9-1" vertex="1">
          <mxGeometry width="590" height="380" as="geometry" />
        </mxCell>
        <mxCell id="16fR0u0LPAKKEnV1Gi2a-2" value="" style="outlineConnect=0;dashed=0;verticalLabelPosition=bottom;verticalAlign=top;align=center;html=1;shape=mxgraph.aws3.cloud_2;fillColor=#F58534;gradientColor=none;rounded=1;" parent="et_fUm3F6kDetxY7O-I9-1" vertex="1">
          <mxGeometry x="515" width="75" height="75" as="geometry" />
        </mxCell>
        <mxCell id="et_fUm3F6kDetxY7O-I9-13" style="edgeStyle=orthogonalEdgeStyle;rounded=0;orthogonalLoop=1;jettySize=auto;html=1;exitX=0.5;exitY=1;exitDx=0;exitDy=0;exitPerimeter=0;entryX=0.5;entryY=0;entryDx=0;entryDy=0;fontColor=none;" edge="1" parent="et_fUm3F6kDetxY7O-I9-1" source="16fR0u0LPAKKEnV1Gi2a-4" target="16fR0u0LPAKKEnV1Gi2a-8">
          <mxGeometry relative="1" as="geometry" />
        </mxCell>
        <mxCell id="16fR0u0LPAKKEnV1Gi2a-4" value="GuardDuty" style="points=[[0,0,0],[0.25,0,0],[0.5,0,0],[0.75,0,0],[1,0,0],[0,1,0],[0.25,1,0],[0.5,1,0],[0.75,1,0],[1,1,0],[0,0.25,0],[0,0.5,0],[0,0.75,0],[1,0.25,0],[1,0.5,0],[1,0.75,0]];outlineConnect=0;fontColor=#232F3E;gradientColor=#F54749;gradientDirection=north;fillColor=#C7131F;strokeColor=#ffffff;dashed=0;verticalLabelPosition=top;verticalAlign=bottom;align=center;html=1;fontSize=12;fontStyle=1;aspect=fixed;shape=mxgraph.aws4.resourceIcon;resIcon=mxgraph.aws4.guardduty;rounded=1;labelPosition=center;" parent="et_fUm3F6kDetxY7O-I9-1" vertex="1">
          <mxGeometry x="266.26" y="59.99999999999998" width="57.47368421052631" height="57.47368421052631" as="geometry" />
        </mxCell>
        <mxCell id="16fR0u0LPAKKEnV1Gi2a-5" value="AWS Events2Panther" style="outlineConnect=0;dashed=0;verticalLabelPosition=bottom;verticalAlign=top;align=center;html=1;shape=mxgraph.aws3.lambda_function;fillColor=#F58534;gradientColor=none;fontStyle=1;rounded=1;" parent="et_fUm3F6kDetxY7O-I9-1" vertex="1">
          <mxGeometry x="260.5" y="269.99999999999994" width="69" height="71.99999999999997" as="geometry" />
        </mxCell>
        <mxCell id="et_fUm3F6kDetxY7O-I9-8" style="edgeStyle=orthogonalEdgeStyle;rounded=0;orthogonalLoop=1;jettySize=auto;html=1;exitX=0.5;exitY=1;exitDx=0;exitDy=0;exitPerimeter=0;entryX=0.131;entryY=0;entryDx=0;entryDy=0;entryPerimeter=0;fontColor=none;" edge="1" parent="et_fUm3F6kDetxY7O-I9-1" source="16fR0u0LPAKKEnV1Gi2a-7" target="16fR0u0LPAKKEnV1Gi2a-8">
          <mxGeometry relative="1" as="geometry" />
        </mxCell>
        <mxCell id="16fR0u0LPAKKEnV1Gi2a-7" value="CloudWatch events" style="points=[[0,0,0],[0.25,0,0],[0.5,0,0],[0.75,0,0],[1,0,0],[0,1,0],[0.25,1,0],[0.5,1,0],[0.75,1,0],[1,1,0],[0,0.25,0],[0,0.5,0],[0,0.75,0],[1,0.25,0],[1,0.5,0],[1,0.75,0]];points=[[0,0,0],[0.25,0,0],[0.5,0,0],[0.75,0,0],[1,0,0],[0,1,0],[0.25,1,0],[0.5,1,0],[0.75,1,0],[1,1,0],[0,0.25,0],[0,0.5,0],[0,0.75,0],[1,0.25,0],[1,0.5,0],[1,0.75,0]];outlineConnect=0;fontColor=#232F3E;gradientColor=#F34482;gradientDirection=north;fillColor=#BC1356;strokeColor=#ffffff;dashed=0;verticalLabelPosition=top;verticalAlign=bottom;align=center;html=1;fontSize=12;fontStyle=1;aspect=fixed;shape=mxgraph.aws4.resourceIcon;resIcon=mxgraph.aws4.cloudwatch_2;rounded=1;labelPosition=center;" parent="et_fUm3F6kDetxY7O-I9-1" vertex="1">
          <mxGeometry x="111" y="59.99999999999998" width="57.47368421052631" height="57.47368421052631" as="geometry" />
        </mxCell>
        <mxCell id="16fR0u0LPAKKEnV1Gi2a-13" style="edgeStyle=orthogonalEdgeStyle;orthogonalLoop=1;jettySize=auto;html=1;exitX=0.5;exitY=1;exitDx=0;exitDy=0;entryX=0.5;entryY=0;entryDx=0;entryDy=0;entryPerimeter=0;" parent="et_fUm3F6kDetxY7O-I9-1" source="16fR0u0LPAKKEnV1Gi2a-8" target="16fR0u0LPAKKEnV1Gi2a-5" edge="1">
          <mxGeometry relative="1" as="geometry" />
        </mxCell>
        <mxCell id="16fR0u0LPAKKEnV1Gi2a-8" value="Event Bus" style="whiteSpace=wrap;html=1;fontStyle=1;rounded=1;" parent="et_fUm3F6kDetxY7O-I9-1" vertex="1">
          <mxGeometry x="85" y="170" width="420" height="59.99999999999998" as="geometry" />
        </mxCell>
        <mxCell id="et_fUm3F6kDetxY7O-I9-6" style="edgeStyle=orthogonalEdgeStyle;rounded=0;orthogonalLoop=1;jettySize=auto;html=1;entryX=0.5;entryY=0;entryDx=0;entryDy=0;fontColor=none;" edge="1" parent="1" source="et_fUm3F6kDetxY7O-I9-2" target="et_fUm3F6kDetxY7O-I9-4">
          <mxGeometry relative="1" as="geometry" />
        </mxCell>
        <mxCell id="et_fUm3F6kDetxY7O-I9-2" value="Internet" style="aspect=fixed;perimeter=ellipsePerimeter;html=1;align=center;shadow=0;dashed=0;spacingTop=3;image;image=img/lib/active_directory/internet_cloud.svg;rounded=1;labelPosition=center;verticalLabelPosition=middle;verticalAlign=middle;fontStyle=1;labelBackgroundColor=none;" vertex="1" parent="1">
          <mxGeometry x="334.63" y="450" width="158.73" height="100" as="geometry" />
        </mxCell>
        <mxCell id="et_fUm3F6kDetxY7O-I9-4" value="" style="shape=image;imageAspect=0;aspect=fixed;verticalLabelPosition=bottom;verticalAlign=top;rounded=1;labelBackgroundColor=#ffffff;fontColor=none;image=https://vinceoa.github.io/panther-docs/img/panther_logo_thin.png;imageBackground=#000000;" vertex="1" parent="1">
          <mxGeometry x="154" y="620" width="520" height="79" as="geometry" />
        </mxCell>
        <mxCell id="et_fUm3F6kDetxY7O-I9-5" style="edgeStyle=orthogonalEdgeStyle;rounded=0;orthogonalLoop=1;jettySize=auto;html=1;entryX=0.5;entryY=0;entryDx=0;entryDy=0;fontColor=none;" edge="1" parent="1" source="16fR0u0LPAKKEnV1Gi2a-5" target="et_fUm3F6kDetxY7O-I9-2">
          <mxGeometry relative="1" as="geometry" />
        </mxCell>
      </root>
    </mxGraphModel>
  </diagram>
</mxfile>
